<svg xmlns="http://www.w3.org/2000/svg" viewBox="0 0 13.38 13.33"><defs><style>.cls-1{fill:#fff;}</style></defs><g id="Layer_2" data-name="Layer 2"><g id="Layer_1-2" data-name="Layer 1"><path class="cls-1" d="M7.5,13.33v-.12c0-1.48,0-3,0-4.45,0-.11,0-.13.14-.13H9.1c.08-.62.16-1.23.24-1.86H7.52a.08.08,0,0,1,0,0c0-.45,0-.88,0-1.32a.68.68,0,0,1,.74-.72c.33,0,.67,0,1,0h.13V3a3.16,3.16,0,0,0-.32,0c-.46,0-.93-.05-1.39,0a2.1,2.1,0,0,0-2,1.94c-.06.53,0,1.06,0,1.59v.28H4.09c-.08,0-.12,0-.11.12V8.62h1.6v4.66a6.66,6.66,0,1,1,1.92.05Z"/></g></g></svg>