<svg xmlns="http://www.w3.org/2000/svg" viewBox="0 0 13.39 13.39"><defs><style>.cls-1{fill:#fff;}</style></defs><g id="Layer_2" data-name="Layer 2"><g id="Layer_1-2" data-name="Layer 1"><path class="cls-1" d="M13.39,6.71A6.7,6.7,0,1,1,6.81,0,6.71,6.71,0,0,1,13.39,6.71Zm-2.82,0V5.06a2,2,0,0,0,0-.34A2.24,2.24,0,0,0,8.32,2.81H5.06A2.24,2.24,0,0,0,2.82,5.08c0,1.07,0,2.15,0,3.22a1.72,1.72,0,0,0,0,.32,2.24,2.24,0,0,0,2.25,2H8.31a2.19,2.19,0,0,0,.36,0,2.23,2.23,0,0,0,1.9-2.25Z"/><path class="cls-1" d="M9.85,6.72V8.36A1.49,1.49,0,0,1,8.63,9.85a1.51,1.51,0,0,1-.3,0c-1.09,0-2.18,0-3.28,0A1.47,1.47,0,0,1,3.56,8.64a1.27,1.27,0,0,1,0-.28V5.06A1.48,1.48,0,0,1,4.72,3.58a1.53,1.53,0,0,1,.3,0H8.36A1.49,1.49,0,0,1,9.85,5c0,.57,0,1.14,0,1.71Zm-1.15,0a2,2,0,1,0-2,2A2,2,0,0,0,8.7,6.72Zm.43-2.21a.35.35,0,0,0-.35-.35.36.36,0,0,0-.36.35.37.37,0,0,0,.36.37A.37.37,0,0,0,9.13,4.51Z"/><path class="cls-1" d="M8,6.71a1.3,1.3,0,1,1-2.6,0,1.3,1.3,0,1,1,2.6,0Z"/></g></g></svg>