<svg xmlns="http://www.w3.org/2000/svg" xmlns:xlink="http://www.w3.org/1999/xlink" viewBox="0 0 337.98 103.16"><defs><style>.cls-1{fill:#231f20;stroke:#fff;stroke-miterlimit:10;stroke-width:0.25px;}.cls-2{fill:url(#linear-gradient);}.cls-3{fill:url(#linear-gradient-2);}.cls-4{fill:url(#linear-gradient-3);}.cls-5{fill:url(#linear-gradient-4);}.cls-6{fill:url(#linear-gradient-5);}.cls-7{fill:url(#linear-gradient-6);}.cls-8{fill:url(#linear-gradient-7);}.cls-9{fill:url(#linear-gradient-8);}.cls-10{fill:url(#linear-gradient-9);}.cls-11{fill:url(#linear-gradient-10);}.cls-12{fill:url(#linear-gradient-11);}.cls-13{fill:url(#linear-gradient-12);}.cls-14{fill:url(#linear-gradient-13);}.cls-15{fill:url(#linear-gradient-14);}.cls-16{fill:none;}.cls-17{fill:url(#linear-gradient-15);}.cls-18{fill:url(#linear-gradient-16);}.cls-19{fill:url(#linear-gradient-17);}.cls-20{fill:url(#linear-gradient-18);}.cls-21{fill:url(#linear-gradient-19);}.cls-22{fill:url(#linear-gradient-20);}.cls-23{fill:url(#linear-gradient-21);}.cls-24{fill:url(#linear-gradient-22);}.cls-25{fill:url(#linear-gradient-23);}.cls-26{fill:url(#linear-gradient-24);}.cls-27{fill:url(#linear-gradient-25);}</style><linearGradient id="linear-gradient" x1="328.58" y1="94.12" x2="328.58" y2="-16.23" gradientUnits="userSpaceOnUse"><stop offset="0" stop-color="#ed4136"/><stop offset="1" stop-color="#f07b21"/></linearGradient><linearGradient id="linear-gradient-2" x1="8.22" y1="94.12" x2="8.22" y2="-16.23" xlink:href="#linear-gradient"/><linearGradient id="linear-gradient-3" x1="41.51" y1="94.12" x2="41.51" y2="-16.23" xlink:href="#linear-gradient"/><linearGradient id="linear-gradient-4" x1="73.68" y1="94.12" x2="73.68" y2="-16.23" xlink:href="#linear-gradient"/><linearGradient id="linear-gradient-5" x1="137.76" y1="94.12" x2="137.76" y2="-16.23" xlink:href="#linear-gradient"/><linearGradient id="linear-gradient-6" x1="118.42" y1="94.12" x2="118.42" y2="-16.23" xlink:href="#linear-gradient"/><linearGradient id="linear-gradient-7" x1="296.62" y1="94.12" x2="296.62" y2="-16.23" xlink:href="#linear-gradient"/><linearGradient id="linear-gradient-8" x1="310.35" y1="94.12" x2="310.35" y2="-16.23" xlink:href="#linear-gradient"/><linearGradient id="linear-gradient-9" x1="231.61" y1="94.12" x2="231.61" y2="-16.23" xlink:href="#linear-gradient"/><linearGradient id="linear-gradient-10" x1="264.06" y1="94.12" x2="264.06" y2="-16.23" xlink:href="#linear-gradient"/><linearGradient id="linear-gradient-11" x1="200.23" y1="94.12" x2="200.23" y2="-16.23" xlink:href="#linear-gradient"/><linearGradient id="linear-gradient-12" x1="169.05" y1="94.12" x2="169.05" y2="-16.23" xlink:href="#linear-gradient"/><linearGradient id="linear-gradient-13" x1="169.02" y1="94.12" x2="169.02" y2="-16.23" xlink:href="#linear-gradient"/><linearGradient id="linear-gradient-14" x1="169.12" y1="94.12" x2="169.12" y2="-16.23" xlink:href="#linear-gradient"/><linearGradient id="linear-gradient-15" x1="249.33" y1="24.28" x2="249.33" y2="20.37" xlink:href="#linear-gradient"/><linearGradient id="linear-gradient-16" x1="212.16" y1="94.12" x2="212.16" y2="-16.23" xlink:href="#linear-gradient"/><linearGradient id="linear-gradient-17" x1="238.72" y1="94.12" x2="238.72" y2="-16.23" xlink:href="#linear-gradient"/><linearGradient id="linear-gradient-18" x1="243.61" y1="94.12" x2="243.61" y2="-16.23" xlink:href="#linear-gradient"/><linearGradient id="linear-gradient-19" x1="286.75" y1="94.12" x2="286.75" y2="-16.23" xlink:href="#linear-gradient"/><linearGradient id="linear-gradient-20" x1="169.71" y1="94.12" x2="169.71" y2="-16.23" xlink:href="#linear-gradient"/><linearGradient id="linear-gradient-21" x1="99.41" y1="94.12" x2="99.41" y2="-16.23" xlink:href="#linear-gradient"/><linearGradient id="linear-gradient-22" x1="27.63" y1="94.12" x2="27.63" y2="-16.23" xlink:href="#linear-gradient"/><linearGradient id="linear-gradient-23" x1="76.91" y1="94.12" x2="76.91" y2="-16.23" xlink:href="#linear-gradient"/><linearGradient id="linear-gradient-24" x1="25.91" y1="94.12" x2="25.91" y2="-16.23" xlink:href="#linear-gradient"/><linearGradient id="linear-gradient-25" x1="312.73" y1="94.12" x2="312.73" y2="-16.23" xlink:href="#linear-gradient"/></defs><g id="Layer_2" data-name="Layer 2"><g id="Layer_1-2" data-name="Layer 1"><path class="cls-1" d="M97.24,15.56a1.57,1.57,0,0,1,1-1.21c.67-.36,1.33-.73,2-1a12.89,12.89,0,0,1,1.45-.58c.58-.2.7-.43.52-1-.26-.86-.45-1.75-.75-2.6a5.7,5.7,0,0,0-.8-1.24A7,7,0,0,1,100,7c-.2-.42.19-.28.35-.28.29-.4.14-.91.46-1.29.06-.07-.13-.37-.21-.57l.27,0L100.68,4l.76.2.12-1c.56-.14,1.15-.32,1.75-.43a3,3,0,0,1,.71.09c.74.07,1.49.14,2.23.18a1.05,1.05,0,0,1,1,.83,4.44,4.44,0,0,0,.38.71,17.2,17.2,0,0,1,.66,1.62c.07.2,0,.4-.23.63A2.14,2.14,0,0,0,107.62,8c-.1.54-.13,1.1-.21,1.66a.61.61,0,0,1-.14.36c-.7.63-.39,1.54-.82,2.38.72-.13,1,.3,1.49.54A15.68,15.68,0,0,0,110.42,14a2.23,2.23,0,0,1,1.42,1.39"/><path class="cls-1" d="M66.74,15.56a1.6,1.6,0,0,1,1-1.21c.67-.36,1.33-.73,2-1a12.32,12.32,0,0,1,1.46-.58c.58-.2.69-.43.52-1-.26-.86-.45-1.75-.76-2.6a5.65,5.65,0,0,0-.79-1.24A7.09,7.09,0,0,1,69.47,7c-.19-.42.2-.28.36-.28.29-.4.14-.91.46-1.29.06-.07-.13-.37-.21-.57l.27,0L70.18,4l.76.2.13-1c.55-.14,1.14-.32,1.74-.43a3,3,0,0,1,.72.09c.74.07,1.48.14,2.22.18a1.07,1.07,0,0,1,1,.83,4.37,4.37,0,0,0,.37.71,17.3,17.3,0,0,1,.67,1.62c.07.2,0,.4-.24.63A2.22,2.22,0,0,0,77.13,8c-.11.54-.14,1.1-.21,1.66a.61.61,0,0,1-.14.36c-.7.63-.39,1.54-.82,2.38.72-.13,1.05.3,1.48.54A16.52,16.52,0,0,0,79.92,14a2.25,2.25,0,0,1,1.43,1.39"/><path class="cls-2" d="M338,25.26v-3a8.94,8.94,0,0,0-9.4,7.28,56.41,56.41,0,0,0-.5,6.88c-.09,1.81,0,3.56-1.68,4.92-2.07,1.71-2.7,4.21-3,6.75-.32,3-.52,5.92-.69,8.88-.07,1.31-.55,1.77-1.9,1.75h-1.65l0,0,8.65-.08c-.94,0-1.15-.5-1.06-1.34.17-1.81.33-3.61.44-5.42.29-4.76,4-9.81,9.32-10.7a10.49,10.49,0,0,0,1.41-.45V37.15l-6.53.4c0-1.38-.1-2.85,0-4.29A8.79,8.79,0,0,1,338,25.26Z"/><path class="cls-3" d="M15.24,57c-.16-3-.35-5.92-.69-8.87a11.14,11.14,0,0,0-3.74-7.63,2.1,2.1,0,0,1-.68-1.24,48.28,48.28,0,0,1-.55-7.85c.26-4-4.11-9.79-9.58-9.1v3a8.65,8.65,0,0,1,6.47,7.5c.24,1.6.24,3.24.34,4.79L0,37.15v3.63C6.93,42,10.72,47,10.86,53.41a23.26,23.26,0,0,0,.27,3.45c.22,1.34-.11,1.9-1.58,1.85h6.9C15.61,58.55,15.3,58,15.24,57Z"/><path class="cls-1" d="M39.54,15.59a3.42,3.42,0,0,0,.67-1,1.2,1.2,0,0,0-.05-.83c-.22-.54-.51-1-.8-1.64a.49.49,0,0,1-.57-.51l-.14,0v2.44h-.16c-.06-.41-.15-.82-.18-1.24s0-.87,0-1.3l-.11,0-.24.67a2.78,2.78,0,0,1,0-.29c.1-.65.22-1.31.28-2a2,2,0,0,0-.18-.65c-.17-.59-.37-1.18-.5-1.78,0-.14.15-.32.21-.49.24-.74.55-1.41,1.45-1.61L39,5.18a1.17,1.17,0,0,1,.1-1.53,4.77,4.77,0,0,0,.6-.59.62.62,0,0,1,.77-.16A1.77,1.77,0,0,0,41,3a2.73,2.73,0,0,1,.64,0c.32.11.55.32.48.58l.75.86s0,.11.09.13c.45.17.91.32,1.35.5a3.67,3.67,0,0,1,.76.46c.15.11.23.31.38.42a1.1,1.1,0,0,1,.41,1c-.05.64-.15,1.28-.24,1.92a1.4,1.4,0,0,1-.2.41A5,5,0,0,1,45.81,13a2.3,2.3,0,0,1-.19-.47,4.18,4.18,0,0,0-.16-.58,4.45,4.45,0,0,1-.18,1,3.44,3.44,0,0,1-.59.77A3.38,3.38,0,0,0,45,11.61l-.49,0L44,13.93l.32,0a1,1,0,0,1,.83.39,13.64,13.64,0,0,0,1.75,1.56m-1.4-5.59-.11,0,.42,1.42A1.89,1.89,0,0,0,45.49,10.32Z"/><path class="cls-4" d="M55.26,37.19c-.45-5.94-.79-11.64-1.33-17.33A6.16,6.16,0,0,0,48,14.05c-5.38-.11-10.77-.07-16.16,0a5.09,5.09,0,0,0-4.07,2.1c1.37-.09,2.51-.22,3.66-.22,4.4,0,8.8.13,13.19,0,4.85-.19,8,3.43,7.19,9.08C51.8,25,54,26.77,55.26,37.19Z"/><path class="cls-5" d="M87.35,22.21c-1-.09-1-.51-1.19-2.18-.32-3.35-2.7-5.91-5.94-6-5.38-.12-10.77-.07-16.16,0A5.57,5.57,0,0,0,60,16c6.24,0,12.33-.1,18.42,0,3.19.08,5.84,3.27,5.32,6.17Z"/><path class="cls-1" d="M129.25,15.58c.94-.41,1.88-.81,2.79-1.26.65-.32,1.26-.71,1.88-1.09.08-.05.17-.23.14-.3a6.41,6.41,0,0,1-.1-1.28,8.91,8.91,0,0,0-.94-2,2.33,2.33,0,0,1-.14-.47c-.15-.85-.28-1.72-.46-2.57a1.28,1.28,0,0,0-.4-.75c-.47-.32-.33-.72-.2-1.08a15.35,15.35,0,0,1,.83-2c.06-.13.34-.16.61-.27a2.59,2.59,0,0,1,1.57-1.07,3.6,3.6,0,0,1,2.67.28c.67.27,1.29.66,1.93,1a2.08,2.08,0,0,1,1,1.81,32.13,32.13,0,0,1-.16,4.38.86.86,0,0,1-.31.53,1.27,1.27,0,0,0-.13,1.81A1.09,1.09,0,0,1,140,12a.85.85,0,0,0,.57,1c.93.46,1.85.92,2.76,1.39.65.33,1.27.72,1.94,1"/><path class="cls-6" d="M124.43,16.26A5.19,5.19,0,0,1,128.66,14c5.33-.06,10.66-.09,16,0a6.11,6.11,0,0,1,5.86,5.13,26.25,26.25,0,0,1,.53,6.22c-.14,1.74-1,3.42-1.72,5.54-.28-3.33-.5-6.24-.78-9.15a6.18,6.18,0,0,0-6-5.77c-5.33-.1-10.66,0-16,0A17.91,17.91,0,0,0,124.43,16.26Z"/><path class="cls-1" d="M117.73,23.07c.13-.24.71-1.82.83-2.06A2.31,2.31,0,0,1,121,19.57c.59.06,1.21,0,1.8,0a1.36,1.36,0,0,0,1.29-.6c.44-.54.88-1.13,1.82-.86-.06-.66-.1-1.23-.16-1.8a.34.34,0,0,0-.16-.23c-.59-.27-.64-.83-.72-1.36-.14-.95-.27-1.91-.36-2.86,0-.44-.26-.6-.66-.66a1.13,1.13,0,0,1-.65-.33l.48.11-.86-.74L123,10c.29.07.54.6.91.1l-.3-.32L125,9.05l-.72-.15,1.34-.61L125,7.9c.54-.37.49-.94-.27-1.49l.57.06.09-.35.59.8.12-.08L126,6.4l1.06.75.37-.84.49.37c.39-.71.39-.71-.06-.95a1.63,1.63,0,0,1,1.61.59l0-.17c.22,0,.51,0,.64.13a3.8,3.8,0,0,1,1.23,1.43c.09.24.6.32.92.48L132.4,8c.07.36.13.72.23,1.06a1.28,1.28,0,0,0,.29.47,1.46,1.46,0,0,1,.34,2,5.42,5.42,0,0,0-.35,2.38,12.41,12.41,0,0,1-.23,1.82.79.79,0,0,1-.72.69c-.38.88-.74,1.68-1.08,2.48a.68.68,0,0,0,0,.4,2.85,2.85,0,0,0,1.3,2.1l2,1.19"/><path class="cls-1" d="M24,24.55c.15-.27.8-2.06.94-2.33a2.58,2.58,0,0,1,2.75-1.62c.67.06,1.36,0,2,0A1.55,1.55,0,0,0,31.21,20c.49-.62,1-1.28,2-1-.06-.75-.12-1.4-.19-2a.35.35,0,0,0-.17-.25c-.67-.31-.73-1-.82-1.54-.16-1.08-.3-2.16-.4-3.24-.05-.5-.29-.67-.74-.74a1.29,1.29,0,0,1-.75-.38l.55.13-1-.83L30,9.81c.33.08.61.69,1,.11l-.34-.35,1.5-.86-.8-.18,1.51-.68-.6-.44c.61-.42.55-1.06-.31-1.68l.65.06.1-.39.66.9.14-.09-.19-.5,1.2.85L35,5.62l.54.41c.45-.8.45-.8-.07-1.08a1.84,1.84,0,0,1,1.82.67l0-.19c.25,0,.58,0,.73.15a4.35,4.35,0,0,1,1.39,1.61c.09.27.67.37,1,.55l.15-.18c.09.4.14.8.26,1.19a1.39,1.39,0,0,0,.33.53,1.66,1.66,0,0,1,.38,2.25,6.06,6.06,0,0,0-.39,2.69,15.52,15.52,0,0,1-.26,2,.89.89,0,0,1-.82.79c-.43,1-.83,1.89-1.21,2.8a.77.77,0,0,0,0,.45,3.29,3.29,0,0,0,1.46,2.38c.77.43,1.51.9,2.27,1.34"/><path class="cls-7" d="M142.22,52.34c-.5-6.1-1-12.78-1.61-19.45A8.72,8.72,0,0,0,132.83,25c-1.63-.13-3.28-.08-4.92-.08-5.38,0-10.77,0-16.16,0-1.51,0-3,.29-4.65.46,2.3-3.09,5.66-3.18,9-3.22a5.72,5.72,0,0,0-5.35-6.1c-6.08-.14-12.17,0-18.41,0a5.4,5.4,0,0,1,4.06-2c5.38-.06,10.77-.11,16.16,0a6.08,6.08,0,0,1,5.87,6c.08,1.85.74,2.25,2.46,2.2,4.28-.13,8.57-.08,12.86-.07,6,0,9.45,3.2,9.94,9.12.3,3.51.58,7,.85,10.52a4.81,4.81,0,0,1,0,1.47C143.7,46.49,142.9,49.65,142.22,52.34Z"/><path class="cls-1" d="M302.39,15.57c.6-1.44.14-2.82.06-4.2s-.13-1.31,1.07-1.81c.54-.22,1.11-.4,1.14-1.17l-1.76-.9a.79.79,0,0,1-.48-.83c0-1,0-1.92,0-2.88a2.06,2.06,0,0,0-1.59-2.11,5.53,5.53,0,0,0-3.36-.17,1.21,1.21,0,0,0-.72.62,21.88,21.88,0,0,0-.92,3.35,1.72,1.72,0,0,1-1.43,1.46c-.33.1-.68.14-1,.26-.16.06-.37.21-.4.35a.58.58,0,0,0,.19.51,3.34,3.34,0,0,0,2.29,1,10.82,10.82,0,0,1-.23,1.21c-.42,1.25-.89,2.49-1.31,3.74a1.23,1.23,0,0,1-.91.94c-.65.17-1.28.41-1.9.64"/><path class="cls-8" d="M286.23,21.32c.45-2.78,2.71-5.2,5.37-5.26,6.15-.14,12.3,0,18.51,0a5.72,5.72,0,0,0-4.52-2c-4.9,0-9.79,0-14.69,0-4,0-6.61,2.36-6.94,6.43-.3,3.71-.57,7.43-.83,11.2l2.79-6.9C286,23.61,286.05,22.45,286.23,21.32Z"/><path class="cls-1" d="M306.15,24.64c.08-.82.13-1.53.21-2.24a.38.38,0,0,1,.19-.28c.74-.34.81-1,.9-1.7.18-1.18.34-2.37.45-3.56a.8.8,0,0,1,.82-.82,1.36,1.36,0,0,0,.81-.42l-.6.14,1.08-.91-.25-.31c-.36.09-.67.76-1.12.13.12-.13.24-.27.37-.4l-1.66-.94.89-.19-1.66-.76.66-.48c-.67-.46-.6-1.18.34-1.86l-.71.08-.12-.44-.73,1-.15-.09.21-.55-1.32.93-.46-1-.6.45c-.5-.87-.5-.87.07-1.18a2,2,0,0,0-2,.74l0-.21c-.28,0-.64,0-.8.16a4.76,4.76,0,0,0-1.54,1.78c-.1.3-.74.4-1.13.6l-.17-.2c-.09.44-.16.89-.28,1.32a1.55,1.55,0,0,1-.37.58,1.83,1.83,0,0,0-.42,2.48,6.83,6.83,0,0,1,.44,3,17,17,0,0,0,.28,2.26,1,1,0,0,0,.9.87"/><path class="cls-9" d="M323.13,14c-4,0-6.59,2.47-6.9,6.47-.05.59-.1,1.17-.15,1.71-7.14,0-14.11.07-21.09,0-3.24-.05-6.24.37-8.72,2.68,0,0-.18-.06-.35-.12l-2.79,6.9c-.13,1.84-.26,3.69-.4,5.56l3.61-.13a54.1,54.1,0,0,1,.8-5.76,8.34,8.34,0,0,1,8.08-6.36c8.43.09,16.89-.69,25.26.86.08,0,.18-.09.53-.27-.67-.59-1.29-1.07-1.83-1.63-.34-.35-.79-.8-.82-1.22A6.32,6.32,0,0,1,324.29,16c4.56-.12,9.12,0,13.69,0V14C333,14,328.08,14,323.13,14Z"/><path class="cls-1" d="M226.57,14a.52.52,0,0,1,.3-.35c1-.37,2-.69,3-1.08a2.37,2.37,0,0,0,.75-.67,3.37,3.37,0,0,0,.62-.9,1.17,1.17,0,0,0,0-.78c-.2-.5-.46-1-.73-1.51a.46.46,0,0,1-.53-.47l-.13,0v2.25h-.15c0-.38-.13-.76-.16-1.15s0-.8,0-1.2h-.09l-.23.61a2.23,2.23,0,0,1,0-.26c.09-.61.2-1.21.26-1.83a1.71,1.71,0,0,0-.17-.59c-.16-.55-.34-1.09-.46-1.65,0-.13.14-.29.2-.45.22-.68.5-1.3,1.34-1.49-.09-.09-.15-.17-.21-.24a1.08,1.08,0,0,1,.08-1.41,4.76,4.76,0,0,0,.56-.54.55.55,0,0,1,.71-.15,1.55,1.55,0,0,0,.48.07,2.88,2.88,0,0,1,.59,0c.3.1.51.3.44.54l.7.79s.05.1.08.12c.42.16.84.29,1.24.47a3.36,3.36,0,0,1,.71.41c.14.11.21.3.35.4a1,1,0,0,1,.37.94c0,.6-.13,1.19-.22,1.78a1.29,1.29,0,0,1-.18.38,4.56,4.56,0,0,1,.38,3.37,2.93,2.93,0,0,1-.18-.43,3.29,3.29,0,0,0-.14-.54,4.2,4.2,0,0,1-.17.95,3.51,3.51,0,0,1-.54.71,3.1,3.1,0,0,0,.26-1.93l-.45,0-.46,2.11a1.26,1.26,0,0,0,.29,0,.94.94,0,0,1,.77.37,14.56,14.56,0,0,0,1.61,1.43,2.49,2.49,0,0,0,.8.24c.56.18,1.13.35,1.69.55a5.32,5.32,0,0,1,.5,1.19M236.11,7l-.11,0,.39,1.32A1.79,1.79,0,0,0,236.11,7Z"/><path class="cls-1" d="M108.91,40a7.33,7.33,0,0,0,1.36-2,2.57,2.57,0,0,0-.11-1.7c-.44-1.1-1-2.14-1.61-3.33a1,1,0,0,1-1.16-1l-.29.09v5l-.32,0c-.13-.84-.31-1.68-.37-2.53s0-1.76,0-2.64l-.21,0-.5,1.35a5.34,5.34,0,0,1,0-.57c.2-1.34.45-2.67.58-4a3.93,3.93,0,0,0-.37-1.31c-.36-1.21-.75-2.4-1-3.62-.07-.29.32-.65.43-1,.48-1.49,1.11-2.85,3-3.27l-.47-.52a2.39,2.39,0,0,1,.2-3.12,8.58,8.58,0,0,0,1.22-1.19,1.22,1.22,0,0,1,1.57-.32,3.58,3.58,0,0,0,1,.15,5.18,5.18,0,0,1,1.31,0c.65.21,1.11.65,1,1.17l1.54,1.75c.07.08.1.23.18.26.91.35,1.84.65,2.73,1a7.82,7.82,0,0,1,1.55.92c.31.22.47.64.78.87a2.18,2.18,0,0,1,.81,2.08c-.09,1.3-.29,2.61-.48,3.91a3.07,3.07,0,0,1-.4.82,10,10,0,0,1,.82,7.42,7.22,7.22,0,0,1-.38-.95,7.45,7.45,0,0,0-.31-1.19,9.72,9.72,0,0,1-.37,2.1,7.18,7.18,0,0,1-1.2,1.56,6.9,6.9,0,0,0,.58-4.24L119,32l-1,4.66a5.64,5.64,0,0,0,.65.06,2.08,2.08,0,0,1,1.7.8,28.82,28.82,0,0,0,3.54,3.17M121,29.31l-.24.09.86,2.89A3.93,3.93,0,0,0,121,29.31Z"/><path class="cls-10" d="M240.94,14c-4.84,0-9.67,0-14.51,0-4.05,0-6.64,2.38-6.89,6.41-.08,1.41-.48,1.88-1.94,1.85l4.3-.09A5.9,5.9,0,0,1,227.45,16c2-.11,4,0,5.94-.05h12.23A6,6,0,0,0,240.94,14Z"/><path class="cls-1" d="M257.21,15.58c.93-.41,1.87-.81,2.79-1.26.64-.32,1.25-.71,1.87-1.09a.4.4,0,0,0,.15-.3,5.78,5.78,0,0,1-.11-1.28,8.87,8.87,0,0,0-.93-2,1.83,1.83,0,0,1-.14-.47c-.16-.85-.29-1.72-.47-2.57a1.28,1.28,0,0,0-.4-.75c-.47-.32-.33-.72-.2-1.08a16.93,16.93,0,0,1,.83-2c.06-.13.34-.16.61-.27a2.61,2.61,0,0,1,1.58-1.07,3.57,3.57,0,0,1,2.66.28c.67.27,1.29.66,1.93,1a2.06,2.06,0,0,1,1,1.81,32.13,32.13,0,0,1-.16,4.38.89.89,0,0,1-.3.53,1.27,1.27,0,0,0-.14,1.81A1.09,1.09,0,0,1,268,12a.85.85,0,0,0,.57,1l2.77,1.39c.64.33,1.27.72,1.94,1"/><path class="cls-11" d="M259.74,16c6-.08,12.07,0,18.1,0l.2-.39c-1.38-.52-2.75-1.46-4.14-1.5-5.39-.18-10.78-.14-16.17-.05a6.18,6.18,0,0,0-5.67,4.55c-.34,1.17-.23,2.86-1,3.42a2,2,0,0,1-1,.31l5.47-.09h-.09c-1.47,0-1.69-.53-1.29-1.78A6.22,6.22,0,0,1,259.74,16Z"/><path class="cls-1" d="M205.44,15.39c-.78-.35-1.58-.68-2.35-1.06-.54-.27-1.06-.6-1.58-.92-.07,0-.15-.19-.12-.25a6,6,0,0,0,.09-1.08,7.41,7.41,0,0,1,.78-1.7,1.36,1.36,0,0,0,.12-.39c.13-.73.24-1.46.4-2.18a1,1,0,0,1,.33-.62c.4-.28.28-.61.17-.92a14.08,14.08,0,0,0-.7-1.65c-.05-.11-.29-.13-.52-.23a2.17,2.17,0,0,0-1.32-.9,3,3,0,0,0-2.25.23c-.56.23-1.09.56-1.63.84A1.74,1.74,0,0,0,196,6.08a27.05,27.05,0,0,0,.14,3.7.73.73,0,0,0,.26.44,1.08,1.08,0,0,1,.11,1.53.87.87,0,0,0-.18.62.72.72,0,0,1-.49.82l-2.33,1.17c-.55.28-1.07.61-1.64.85"/><path class="cls-12" d="M213.45,16c-6.24,0-12.33-.11-18.41,0-3,.08-5.32,2.77-5.58,6-.25,3-.49,5.91-.72,8.79-2.16-3.81-2-7.93-1.15-12.06A6,6,0,0,1,193.3,14c5.38-.08,10.77,0,16.15,0A5.21,5.21,0,0,1,213.45,16Z"/><path class="cls-1" d="M201.09,23.89c.27-2.12.23.74.5-1.35A2.06,2.06,0,0,1,202.84,21c.86-.46,1.72-.93,2.59-1.35a16.51,16.51,0,0,1,1.87-.74c.75-.27.89-.55.67-1.29-.34-1.1-.58-2.25-1-3.33a8,8,0,0,0-1-1.6,7.24,7.24,0,0,1-.88-1.14c-.25-.54.25-.36.46-.36.37-.51.17-1.17.58-1.65.08-.1-.16-.48-.26-.74l.34,0-.21-1L207,8l.15-1.35c.72-.17,1.48-.4,2.25-.54a3.33,3.33,0,0,1,.92.12c.95.08,1.9.17,2.85.23a1.35,1.35,0,0,1,1.25,1.06,6.29,6.29,0,0,0,.49.92,21.93,21.93,0,0,1,.85,2.07c.09.26,0,.52-.3.81a2.75,2.75,0,0,0-.52,1.46c-.14.7-.18,1.42-.27,2.13a.79.79,0,0,1-.18.47c-.9.81-.5,2-1.06,3,.93-.17,1.35.39,1.91.7a20.57,20.57,0,0,0,3.19,1.4,2.85,2.85,0,0,1,1.82,1.78c.83,2.08,0-2.22.32,0"/><path class="cls-1" d="M69.28,22.3c1.09-.48,2.18-.95,3.25-1.47.75-.37,1.47-.83,2.19-1.26.09-.06.2-.27.16-.36a7.06,7.06,0,0,1-.12-1.49,9.89,9.89,0,0,0-1.09-2.34,2.09,2.09,0,0,1-.16-.54c-.18-1-.33-2-.54-3A1.49,1.49,0,0,0,72.5,11c-.55-.37-.38-.84-.23-1.26a21.74,21.74,0,0,1,1-2.29c.08-.15.4-.18.72-.31a3,3,0,0,1,1.83-1.25,4.21,4.21,0,0,1,3.11.33c.78.32,1.5.77,2.25,1.15a2.41,2.41,0,0,1,1.13,2.11,36.36,36.36,0,0,1-.19,5.1,1,1,0,0,1-.35.61,1.49,1.49,0,0,0-.16,2.12,1.2,1.2,0,0,1,.25.85,1,1,0,0,0,.68,1.14q1.6.79,3.21,1.62c.76.39,2.83,1.87,3.61,2.19"/><path class="cls-1" d="M160.08,15.58c.09-.58.63.26,1.07,0l2.49-1.43c-.54-1.29-.13-2.54,0-3.79s.11-1.18-1-1.62c-.48-.2-1-.37-1-1.06l1.59-.81a.73.73,0,0,0,.44-.75c0-.86,0-1.73,0-2.59a1.87,1.87,0,0,1,1.44-1.91,5,5,0,0,1,3-.15,1.1,1.1,0,0,1,.65.56,18.77,18.77,0,0,1,.83,3,1.53,1.53,0,0,0,1.29,1.31c.29.09.61.13.9.24a.61.61,0,0,1,.36.32.59.59,0,0,1-.17.46,3,3,0,0,1-2.07.87,8.77,8.77,0,0,0,.21,1.09c.38,1.13.81,2.24,1.18,3.37a1.11,1.11,0,0,0,.82.85c.58.15,1.15.36,1.72.57a1.41,1.41,0,0,1,.93,1"/><path class="cls-1" d="M274.31,40.11a1,1,0,0,1,.52-.59c1.1-.39,2.21-.73,3.33-1.08a5,5,0,0,0,1.56-.46,26.77,26.77,0,0,0,3.17-2.84,1.84,1.84,0,0,1,1.52-.71c.15,0,.29,0,.59-.06l-.92-4.17-.88-.05a6.14,6.14,0,0,0,.51,3.8,6.53,6.53,0,0,1-1.07-1.4,8.91,8.91,0,0,1-.33-1.88,5.93,5.93,0,0,0-.28,1.06,5.93,5.93,0,0,1-.34.86,9,9,0,0,1,.73-6.65,2.71,2.71,0,0,1-.35-.74c-.18-1.16-.35-2.33-.44-3.5a2,2,0,0,1,.73-1.86c.28-.2.42-.58.7-.78a7,7,0,0,1,1.39-.82c.8-.35,1.63-.61,2.45-.93.07,0,.1-.16.16-.23.42-.48.84-1,1.38-1.56-.13-.47.28-.87.86-1a4.55,4.55,0,0,1,1.17,0,3.24,3.24,0,0,0,.94-.13,1.08,1.08,0,0,1,1.4.29,9.18,9.18,0,0,0,1.1,1.06,2.14,2.14,0,0,1,.17,2.79l-.41.47c1.64.37,2.2,1.59,2.64,2.93.1.31.44.64.39.89-.25,1.09-.6,2.16-.92,3.24a3.62,3.62,0,0,0-.33,1.18c.11,1.2.34,2.4.52,3.6a4.28,4.28,0,0,1,0,.51l-.45-1.21-.19,0c0,.79.05,1.58,0,2.36S295.1,34,295,34.72l-.29,0V30.26l-.25-.08a.89.89,0,0,1-1,.93c-.53,1.07-1.06,2-1.45,3a2.23,2.23,0,0,0-.09,1.52,6.45,6.45,0,0,0,1.21,1.78,4.65,4.65,0,0,0,1.49,1.32M281.7,30.47l.77-2.58-.22-.09A3.51,3.51,0,0,0,281.7,30.47Z"/><path class="cls-13" d="M181.28,16.29H156.82a4.6,4.6,0,0,1,4.1-2.24c5.38-.09,10.76-.08,16.13,0A5.17,5.17,0,0,1,181.28,16.29Z"/><path class="cls-1" d="M250.08,23.89c0-.31.11-.61.17-.92a2,2,0,0,1,1.23-1.62l1.94-.72L255,20.1a13.13,13.13,0,0,0-1.4-.52,2.59,2.59,0,0,0-.84.1c.13-1,.23-2,.38-2.91a24.29,24.29,0,0,0,.41-2.51,5.65,5.65,0,0,1,1-2.56A23.93,23.93,0,0,1,256,9.16a3.17,3.17,0,0,1,3.67-1.28,4.11,4.11,0,0,1,1.6,1.1,6.67,6.67,0,0,1,1.09,1.57c.49.89.92,1.81,1.39,2.71a1.72,1.72,0,0,1,.14.78,8.9,8.9,0,0,0,.34,1.66,5.3,5.3,0,0,1,0,.57c.14,1.09.29,2.18.46,3.46-.87-.49-1.47.23-2.23.37l1.5.53a16.33,16.33,0,0,1,2.17.86,1.78,1.78,0,0,1,.86,1"/><path class="cls-1" d="M166.16,23.8c0-.28.1-.55.15-.82a1.74,1.74,0,0,1,1.1-1.45l1.73-.64,1.37-.47a9.79,9.79,0,0,0-1.25-.46,2,2,0,0,0-.74.08c.11-.9.2-1.75.33-2.6a21.16,21.16,0,0,0,.37-2.23,5,5,0,0,1,.88-2.29,21.54,21.54,0,0,1,1.35-2.27,2.81,2.81,0,0,1,3.27-1.13,3.71,3.71,0,0,1,1.43,1,6.31,6.31,0,0,1,1,1.41c.44.79.83,1.61,1.24,2.41a1.42,1.42,0,0,1,.12.71,9.63,9.63,0,0,0,.31,1.47c0,.16,0,.34,0,.51.12,1,.26,1.95.41,3.08-.78-.43-1.31.21-2,.34l1.34.47a14.07,14.07,0,0,1,1.93.76,1.65,1.65,0,0,1,.77.92"/><path class="cls-14" d="M185.82,25.45h-34a7.8,7.8,0,0,1,4.69-3,10.55,10.55,0,0,1,2.45-.22c6.75,0,13.51,0,20.26,0A9.12,9.12,0,0,1,184.77,24c.47.34,1,.65,1.44,1Z"/><path class="cls-1" d="M155,39.58c0-.21.3-.54.53-.63,1.79-.67,3.62-1.24,5.39-2a4.14,4.14,0,0,0,1.36-1.19,6.28,6.28,0,0,0,1.11-1.63,2.06,2.06,0,0,0-.09-1.4c-.36-.9-.84-1.75-1.32-2.72a.82.82,0,0,1-1-.85l-.24.07v4.05l-.26,0c-.1-.69-.25-1.38-.3-2.07s0-1.44,0-2.16l-.17,0-.41,1.11a3.63,3.63,0,0,1,0-.47c.16-1.1.37-2.19.47-3.29a3.19,3.19,0,0,0-.3-1.08c-.29-1-.61-2-.84-3,0-.24.26-.53.36-.82.4-1.22.91-2.34,2.41-2.68l-.38-.43a2,2,0,0,1,.16-2.55,7.06,7.06,0,0,0,1-1,1,1,0,0,1,1.29-.27,2.4,2.4,0,0,0,.85.12,4.72,4.72,0,0,1,1.07,0c.53.17.91.54.79,1l1.26,1.43c.06.07.09.19.15.21.75.29,1.51.53,2.24.85a6.24,6.24,0,0,1,1.27.75c.25.19.39.53.64.71a1.8,1.8,0,0,1,.66,1.71c-.07,1.07-.23,2.13-.39,3.2a2.69,2.69,0,0,1-.32.67,8.27,8.27,0,0,1,.67,6.08,5.25,5.25,0,0,1-.32-.78,6.58,6.58,0,0,0-.25-1,8.15,8.15,0,0,1-.3,1.72,6.16,6.16,0,0,1-1,1.28,5.64,5.64,0,0,0,.48-3.48l-.81,0L169.68,33a3.4,3.4,0,0,0,.53,0,1.68,1.68,0,0,1,1.39.65,25.52,25.52,0,0,0,2.9,2.6,4.78,4.78,0,0,0,1.43.43c1,.31,2,.62,3,1a.9.9,0,0,1,.47.54M172.19,27l-.2.07.7,2.37A3.19,3.19,0,0,0,172.19,27Z"/><path class="cls-15" d="M145.79,41.59a11.36,11.36,0,0,1,6.49-4.08,13.11,13.11,0,0,1,2.94-.31c9.18,0,18.35,0,27.53,0a12.33,12.33,0,0,1,8.05,2.89,7.48,7.48,0,0,0,1.64.77l-.62.75Z"/><path class="cls-16" d="M250.08,22.32h-.75A6.2,6.2,0,0,0,250.08,22.32Z"/><polygon class="cls-17" points="249.33 22.33 249.32 22.33 249.32 22.33 249.33 22.33"/><path class="cls-18" d="M203.75,22.22c-5.36.05-9,3.53-9.36,8.86-.06.77-.17,1.53-.19,2.3-.12,4.54-1.5,9.13.56,13.6a7.29,7.29,0,0,1,.32,2.27c.14,1.3.25,2.61.38,3.91a7.56,7.56,0,0,0,.53-2.4c.46-5.8,1-11.61,1.34-17.42.25-4,3.56-8.3,8.59-8.29,2.47,0,4.94-.16,7.4-.16,5.83,0,11.66.07,17.36.12-2.09-2.73-5.37-2.89-8.78-2.84l-4.3.09C213,22.16,208.37,22.17,203.75,22.22Z"/><path class="cls-1" d="M238,39.72c-.86-1.08-1.73-2.24-3.6-1.69.12-1.31.21-2.44.34-3.57A.64.64,0,0,1,235,34c1.17-.54,1.27-1.65,1.43-2.7.28-1.88.53-3.76.71-5.65.08-.87.5-1.18,1.29-1.3a2.18,2.18,0,0,0,1.3-.66l-1,.22,1.72-1.46-.4-.47c-.57.13-1.06,1.19-1.78.19l.58-.63-2.62-1.5,1.41-.3L235,18.56l1-.76c-1.05-.74-1-1.87.54-3L235.5,15l-.19-.7-1.15,1.58-.25-.15.33-.88-2.08,1.49-.74-1.65-1,.72c-.78-1.39-.78-1.39.13-1.88a3.22,3.22,0,0,0-3.19,1.17l-.08-.34c-.43.08-1,0-1.27.26-.89.86-2,1.52-2.43,2.83-.17.47-1.18.64-1.81.94l-.26-.31c-.15.7-.25,1.41-.45,2.09a2.31,2.31,0,0,1-.59.92c-1.24,1.27-1.5,2.36-.65,4s.59,3.11.69,4.69a24.1,24.1,0,0,0,.45,3.6,1.56,1.56,0,0,0,1.42,1.37c.76,1.72,1.46,3.31,2.13,4.9a1.38,1.38,0,0,1,.06.78"/><path class="cls-19" d="M249.33,22.33h0a18.53,18.53,0,0,0-2-.07c-4.64.37-7.48,3.58-8.36,7.79a34.91,34.91,0,0,0-.46,5.71c-.05,1-.4,1.37-1.4,1.35-1.65,0-3.3.07-4.94.07-5.72,0-11.43-.08-17.14,0a11.92,11.92,0,0,0-11.83,11c-.46,5.53-.88,11.07-1.31,16.6a18.21,18.21,0,0,0-.16,3.45c.42,3.42.95,6.83,1.52,10.23.07.45.57.83.87,1.24.28-.44.76-.86.81-1.33.27-2.56.44-5.14.66-7.72.53-6.57,1-13.16,1.65-19.71A11.57,11.57,0,0,1,217.87,41c3.66-.21,7.34-.27,11-.14,7.87.27,15.8-.87,23.76.88a11.76,11.76,0,0,0-7.76-4.4c-1-.16-2.46,0-2.88-.65s.15-2,.22-3c.42-5.78,4.4-9.09,10-8.83,7.79.36,15.6-.46,23.52.51a8.61,8.61,0,0,0-6.88-3.14c-4.42,0-8.85-.05-13.27,0l-5.47.09A6.2,6.2,0,0,1,249.33,22.33Z"/><path class="cls-1" d="M225.17,63.32a4.7,4.7,0,0,1,3-3.9q2.34-.89,4.69-1.73c1.17-.43,2.36-.81,3.71-1.28a29.33,29.33,0,0,0-3.38-1.25,5.86,5.86,0,0,0-2,.22c.31-2.43.56-4.73.9-7a57.6,57.6,0,0,0,1-6c.09-2.41,1.3-4.25,2.39-6.2A59.29,59.29,0,0,1,239.05,30a7.63,7.63,0,0,1,8.86-3.07,10,10,0,0,1,3.87,2.63,17.12,17.12,0,0,1,2.62,3.8c1.19,2.14,2.23,4.36,3.36,6.54a4.15,4.15,0,0,1,.33,1.89,23.46,23.46,0,0,0,.82,4c.09.45,0,.92.08,1.38.34,2.63.7,5.27,1.11,8.34-2.1-1.17-3.55.56-5.38.9,1.21.43,2.42.84,3.62,1.28a40.35,40.35,0,0,1,5.23,2.07,4.37,4.37,0,0,1,2.07,2.48"/><path class="cls-20" d="M228.93,58.72c-8.32,0-14.85,5.76-15.63,14-1,10.13-1.61,20.28-2.4,30.43h5.29c.66-8.33,1.37-16.66,2-25,.64-8.83,7.06-14.9,16-14.92,9.46,0,18.92,0,28.38,0,4.63,0,9.35-.63,13.81,1.44-2.34-3.41-5.76-5-9.69-5.92l-6,0Q244.77,58.66,228.93,58.72Z"/><path class="cls-21" d="M303.16,37.19c-4.89,0-9.79,0-14.68,0-.63,0-1.26-.06-2.14-.11l-3.61.13c-2.44,0-4.9,0-7.36,0a12,12,0,0,0-12.06,10.87c-.32,2.95-.55,5.92-.7,8.88-.07,1.42-.59,1.82-2,1.81l6,0c.17-2.19.31-4.21.47-6.23.56-7.18,5.52-11.77,12.73-11.77,8.19,0,16.39,0,24.58,0,2.9,0,5.79-.07,8.5,1.28A12,12,0,0,0,303.16,37.19Z"/><path class="cls-1" d="M152.89,60.14a4.42,4.42,0,0,1,2.69-3.34c1.84-1,3.67-2,5.56-2.9a37.41,37.41,0,0,1,4-1.59c1.6-.56,1.91-1.17,1.43-2.75-.72-2.38-1.23-4.83-2.08-7.15A15.74,15.74,0,0,0,162.3,39a18.41,18.41,0,0,1-1.88-2.43c-.54-1.16.54-.78,1-.79.8-1.1.38-2.5,1.25-3.54.18-.22-.35-1-.56-1.58l.74-.09-.46-2.16,2.1.55.34-2.89c1.53-.38,3.16-.86,4.81-1.17a8.09,8.09,0,0,1,2,.26c2,.18,4.09.36,6.13.49a2.93,2.93,0,0,1,2.69,2.28,13.25,13.25,0,0,0,1,2c.66,1.46,1.33,2.93,1.84,4.44.19.57,0,1.12-.66,1.73s-.9,2.05-1.11,3.15c-.29,1.51-.37,3.05-.58,4.57a1.78,1.78,0,0,1-.38,1c-1.93,1.72-1.08,4.23-2.27,6.54,2-.37,2.89.83,4.1,1.48a43.78,43.78,0,0,0,6.83,3,6.11,6.11,0,0,1,3.92,3.83"/><path class="cls-22" d="M198.88,64.31H140.07A10.75,10.75,0,0,1,145.65,60a20.07,20.07,0,0,1,6.24-1.24c11.76-.12,23.52-.07,35.27-.06a15.46,15.46,0,0,1,10.07,3.49c.67.55,1.41,1,2.12,1.49Z"/><path class="cls-23" d="M136.23,66.62c-.31-6.47-.81-13-1.58-19.38a11.76,11.76,0,0,0-11.52-10.08c-7-.2-13.95,0-20.93,0-2.93,0-2.7,0-3-2.93a23.25,23.25,0,0,0-1.76-8c-1.69-3.49-5.23-4.17-8.88-4.1a12.31,12.31,0,0,1-1.25,0H82c-4.34,0-8.69,0-13,0-3.06,0-5.47,1.32-6.44,3.19a30.38,30.38,0,0,1,3.83-.5c6.37-.06,12.75-.09,19.13,0a12,12,0,0,1,5.28.9A9.58,9.58,0,0,1,96,35.62c-.08,1.06-.37,1.37-1.41,1.47-3.6.35-6.82,1.55-9.18,4.68a34.55,34.55,0,0,1,5.46-.94c9.32-.09,18.64,0,28-.06a12,12,0,0,1,12,10.13c.28,2.12.42,4.26.59,6.4.57,7.07,1.14,14.14,1.66,21.21.08,1,.44,1.36,1.42,1.33s1.49-.14,1.51-1.23C136.05,74.61,136.43,70.6,136.23,66.62Z"/><path class="cls-24" d="M51.8,25a9.62,9.62,0,0,0-7-2.79c-1.21,0-2.42,0-3.63,0H21.89c0-.55-.1-1.14-.14-1.72A6.53,6.53,0,0,0,14.84,14C9.9,14,5,14,0,14v2c4.4,0,8.8-.11,13.19,0a6.23,6.23,0,0,1,6.38,6.21,3.44,3.44,0,0,1-.93,1.8A16,16,0,0,1,17,25.56c1.63-.08,3-.62,4.36-.64,7-.09,14-.07,21,0,5.83,0,10,4.93,8.84,12.28h4.08C54,26.77,51.8,25,51.8,25Z"/><path class="cls-1" d="M38.52,39.84c.07-.49.17-1,.26-1.45a3.06,3.06,0,0,1,1.93-2.54l3-1.13c.76-.28,1.54-.53,2.41-.83a18,18,0,0,0-2.2-.82,4.13,4.13,0,0,0-1.3.15c.2-1.59.36-3.08.58-4.57a35.59,35.59,0,0,0,.65-3.92,8.88,8.88,0,0,1,1.56-4,37.87,37.87,0,0,1,2.36-4,5,5,0,0,1,5.76-2,6.54,6.54,0,0,1,2.52,1.71,11,11,0,0,1,1.7,2.48c.78,1.39,1.46,2.83,2.19,4.25a2.69,2.69,0,0,1,.21,1.23A15.92,15.92,0,0,0,60.74,27c.06.29,0,.6,0,.9.22,1.71.45,3.43.72,5.43-1.36-.77-2.31.36-3.5.58.79.28,1.58.55,2.36.84a25,25,0,0,1,3.4,1.34,2.81,2.81,0,0,1,1.34,1.61"/><path class="cls-1" d="M81.84,61.5c.23-3.75,1.36-8-2.07-9.41-1.54-.64-3.19-1.16-3.27-3.36,1.66-.84,3.34-1.73,5-2.56a2.32,2.32,0,0,0,1.37-2.38c0-2.75-.06-5.5.06-8.25.13-3,1.38-5.09,4.55-6.06S93.92,28,97.15,29a3.42,3.42,0,0,1,2,1.77,61.83,61.83,0,0,1,2.64,9.58c.41,2.62,2,3.53,4.08,4.17,1,.29,1.94.41,2.86.75.47.18,1.06.61,1.15,1a1.78,1.78,0,0,1-.54,1.46c-1.82,1.49-3.75,2.82-6.57,2.76.23,1.21.23,9.89.59,11"/><path class="cls-25" d="M126.17,74.39c-.69-9.81-6.88-15.68-16.75-15.68-10.34,0-20.67,0-31,0-3.09,0-2.79.71-3.1-2.86-.23-2.57-.36-5.15-.63-7.72A12.07,12.07,0,0,0,62.52,37.19c-2.45,0-4.9,0-7.26,0H51.18c-4.53,0-9.09,0-13.64,0a34.09,34.09,0,0,0-5.26.3,10.69,10.69,0,0,0-6.85,4.11,43.77,43.77,0,0,1,5.72-.8c9.24-.08,18.48-.06,27.71,0A11.85,11.85,0,0,1,70.67,50.94c.34,2.28.38,4.6.64,6.89.12,1.06-.47,1.3-1.26,1.74-2.18,1.21-4.27,2.61-6.36,4-.33.22-.49.69-.63.89,2.31-.41,4.56-1.14,6.82-1.16,11.93-.11,23.87-.09,35.8,0a15.29,15.29,0,0,1,15.39,14.26c.73,8.55,1.36,17.1,2,25.65h5.28C127.64,93.57,126.84,84,126.17,74.39Z"/><path class="cls-1" d="M2,61.5a4.4,4.4,0,0,1,2.69-3.33c1.84-1,3.67-2,5.56-2.9a39.69,39.69,0,0,1,4-1.6c1.61-.56,1.91-1.17,1.44-2.75-.72-2.37-1.24-4.82-2.09-7.15a15.55,15.55,0,0,0-2.19-3.43A17.86,17.86,0,0,1,9.51,37.9c-.54-1.16.54-.77,1-.79.8-1.1.38-2.5,1.26-3.54.17-.21-.35-1-.57-1.57l.74-.09-.46-2.16,2.1.54.34-2.88c1.53-.39,3.16-.87,4.81-1.17a7.6,7.6,0,0,1,2,.25c2.05.18,4.09.37,6.14.49a2.94,2.94,0,0,1,2.68,2.29,13.76,13.76,0,0,0,1,2c.66,1.46,1.33,2.92,1.84,4.43a1.58,1.58,0,0,1-.65,1.74c-.73.66-.91,2-1.12,3.14-.29,1.51-.37,3.05-.58,4.58a1.75,1.75,0,0,1-.38,1c-1.93,1.72-1.08,4.23-2.27,6.54,2-.37,2.89.83,4.1,1.49a44.69,44.69,0,0,0,6.83,3A6.11,6.11,0,0,1,42.22,61"/><path class="cls-26" d="M51.23,95.13C50.66,88.18,50,81.24,49.5,74.29,48.84,64.74,42.56,58.75,33,58.72c-5.27,0-10.55,0-15.82,0a3.43,3.43,0,0,1-.68,0H9.55C6.37,58.6,3.18,58.63,0,58.6v4.62c9.62,0,19.25,0,28.87,0a15.12,15.12,0,0,1,13,6.89A17.16,17.16,0,0,1,44.52,79c.42,6,.92,12,1.36,18,.15,2,.22,4,.33,6.07h5.61C51.63,100.48,51.45,97.8,51.23,95.13Z"/><path class="cls-1" d="M337.77,60.87c-2.16-.95-4.34-1.87-6.47-2.92-1.49-.74-2.91-1.64-4.34-2.51a.8.8,0,0,1-.34-.7c.38-1,.09-2.08.25-3,.31-1.63,1.41-3.11,2.16-4.66a4,4,0,0,0,.32-1.08c.37-2,.67-4,1.09-6a2.87,2.87,0,0,1,.92-1.73c1.09-.75.77-1.67.47-2.52a43.18,43.18,0,0,0-1.92-4.54c-.15-.3-.8-.36-1.43-.62-.61-1.32-2.17-1.93-3.64-2.48-2.11-.79-4.22-.17-6.19.64-1.54.64-3,1.53-4.47,2.29-1.72.87-2.15,2.81-2.25,4.19a73.63,73.63,0,0,0,.38,10.16,2.1,2.1,0,0,0,.7,1.21,3,3,0,0,1,.31,4.21,2.51,2.51,0,0,0-.5,1.7,2,2,0,0,1-1.34,2.26c-2.13,1.06-4.27,2.14-6.4,3.22-1.5.77-2.94,1.68-4.49,2.32"/><path class="cls-27" d="M319.18,58.74q-6.93-.09-13.86,0a15.34,15.34,0,0,0-15.44,13.85c-.92,10.18-1.61,20.38-2.4,30.58h5.28a3.73,3.73,0,0,0,.25-.78c.36-5.19.69-10.39,1.07-15.58.26-3.51.43-7,.93-10.51a15.13,15.13,0,0,1,15.09-13c9.29-.06,18.58,0,27.88,0V58.6c-3.35,0-6.7,0-10.05.09h-.06l-8.65.08Z"/></g></g></svg>