<svg xmlns="http://www.w3.org/2000/svg" viewBox="0 0 13.52 13.52"><defs><style>.cls-1{fill:#fff;}</style></defs><g id="Layer_2" data-name="Layer 2"><g id="Layer_1-2" data-name="Layer 1"><g id="GPVUjG"><path class="cls-1" d="M6.78,0A6.76,6.76,0,1,1,0,6.76,6.74,6.74,0,0,1,6.78,0ZM7,2.82V7.77a2.47,2.47,0,0,1-.11.77,1.21,1.21,0,0,1-1.4.76A1.25,1.25,0,0,1,4.47,8,1.14,1.14,0,0,1,5.54,6.88c.61,0,.72-.27.66-.78a5.61,5.61,0,0,1,0-.58,2.61,2.61,0,1,0,2,3.35,4.48,4.48,0,0,0,.13-1.1c0-.89,0-1.77,0-2.64l1.84.74.24-1.38a2.83,2.83,0,0,1-2-1.43.61.61,0,0,0-.4-.23C7.72,2.8,7.39,2.82,7,2.82Z"/></g></g></g></svg>