<svg xmlns="http://www.w3.org/2000/svg" viewBox="0 0 13.52 13.52"><defs><style>.cls-1{fill:#fff;}</style></defs><g id="Layer_2" data-name="Layer 2"><g id="Layer_1-2" data-name="Layer 1"><g id="xifSEJ.tif"><path class="cls-1" d="M7.18,13.52H6.33l-.26,0a6.57,6.57,0,0,1-3.75-1.63A6.63,6.63,0,0,1,0,6.08,6.42,6.42,0,0,1,1.69,2.29,6.63,6.63,0,0,1,6.64,0a6.48,6.48,0,0,1,3.59,1A6.64,6.64,0,0,1,13.41,5.6c.05.24.07.49.11.74v.84l0,.26A6.65,6.65,0,0,1,12,11a6.63,6.63,0,0,1-4.07,2.4C7.68,13.47,7.43,13.49,7.18,13.52Zm-.6-9.75v0H6.44c-.93.05-1.85.08-2.77.14a1,1,0,0,0-1,.88A10.31,10.31,0,0,0,2.55,7.3,9.78,9.78,0,0,0,2.7,8.72a1,1,0,0,0,.85.84c.2,0,.4.06.59.08a39.12,39.12,0,0,0,5.52,0,1.14,1.14,0,0,0,1.21-1.13A11.9,11.9,0,0,0,11,6.25a14.16,14.16,0,0,0-.15-1.46A1,1,0,0,0,10,4a2.76,2.76,0,0,0-.4-.06Z"/><path class="cls-1" d="M5.92,8V5.5L8.11,6.76Z"/></g></g></g></svg>